<?xml version="1.0" encoding="iso-8859-1"?>
<!-- Generator: Adobe Illustrator 19.0.0, SVG Export Plug-In . SVG Version: 6.00 Build 0)  -->
<svg version="1.1" id="Layer_1" xmlns="http://www.w3.org/2000/svg" xmlns:xlink="http://www.w3.org/1999/xlink" x="0px" y="0px"
	 viewBox="0 0 505 505" style="enable-background:new 0 0 505 505;" xml:space="preserve">
<circle style="fill:#FD8469;" cx="252.5" cy="252.5" r="252.5"/>
<path style="fill:#84DBFF;" d="M399,127.2H106c-12,0-21.8,9.8-21.8,21.8v27.3h336.7V149C420.8,137,411.1,127.2,399,127.2z"/>
<path style="fill:#FFFFFF;" d="M284.9,172.6L274,156.1h-60.8l-11,16.5h-118V356c0,12,9.8,21.8,21.8,21.8h293.1
	c12,0,21.8-9.8,21.8-21.8V172.6H284.9z"/>
<polygon style="fill:#54C0EB;" points="106.6,172.5 189.3,172.5 178.4,156.1 117.6,156.1 "/>
<circle style="fill:#324A5E;" cx="389.7" cy="151.2" r="9.8"/>
<circle style="fill:#FFFFFF;" cx="352.2" cy="151.2" r="9.8"/>
<g>
	<path style="fill:#324A5E;" d="M143,277.6v-17.3l61.4-28.9V250l-40.5,18.7l40.5,19.2v18.6L143,277.6z"/>
	<path style="fill:#324A5E;" d="M270,217.1h17.9l-53,115.8h-17.8L270,217.1z"/>
	<path style="fill:#324A5E;" d="M362,260.3v17.3l-61.4,28.9v-18.7l40.5-19.2l-40.5-18.7v-18.6L362,260.3z"/>
</g>
<g>
</g>
<g>
</g>
<g>
</g>
<g>
</g>
<g>
</g>
<g>
</g>
<g>
</g>
<g>
</g>
<g>
</g>
<g>
</g>
<g>
</g>
<g>
</g>
<g>
</g>
<g>
</g>
<g>
</g>
</svg>
