<?xml version="1.0" encoding="iso-8859-1"?>
<!-- Generator: Adobe Illustrator 19.0.0, SVG Export Plug-In . SVG Version: 6.00 Build 0)  -->
<svg version="1.1" id="Layer_1" xmlns="http://www.w3.org/2000/svg" xmlns:xlink="http://www.w3.org/1999/xlink" x="0px" y="0px"
	 viewBox="0 0 512 512" style="enable-background:new 0 0 512 512;" xml:space="preserve">
<circle style="fill:#21D0C3;" cx="256" cy="256" r="256"/>
<ellipse style="fill:#15BDB2;" cx="256" cy="421.646" rx="182.284" ry="14.369"/>
<path style="fill:#666666;" d="M48.89,53.236h391.953c12.877,0,23.412,10.535,23.412,23.412v241.446H25.477V76.648
	C25.477,63.771,36.013,53.236,48.89,53.236z"/>
<g>
	<path style="fill:#FFFFFF;" d="M41.375,302.197h406.983V76.648c0-4.101-3.413-7.514-7.514-7.514H48.89
		c-4.101,0-7.514,3.413-7.514,7.514V302.197z"/>
	<path style="fill:#FFFFFF;" d="M464.256,318.095v25.606c0,12.877-11.611,23.412-25.81,23.412H51.287
		c-14.198,0-25.81-10.535-25.81-23.412v-25.606H464.256z"/>
</g>
<path style="fill:#DCE3DB;" d="M130.25,302.202V69.138H48.886c-4.101,0-7.514,3.413-7.514,7.514v225.548h88.874L130.25,302.202
	L130.25,302.202z"/>
<path style="fill:#FFFFFF;" d="M59.282,96.624h55.463v6.799H59.282V96.624z M59.282,260.24h55.463v6.799H59.282V260.24z
	 M59.282,227.516h46.534v6.799H59.282V227.516z M59.282,194.793h55.463v6.799H59.282V194.793z M59.282,162.068h34.636v6.799H59.282
	V162.068z M59.282,129.344h38.036v6.799H59.282C59.282,136.143,59.282,129.344,59.282,129.344z"/>
<rect x="148.739" y="95.993" style="fill:#FAD24D;" width="51.43" height="6.725"/>
<rect x="209.93" y="95.993" style="fill:#FF5B62;" width="76.321" height="6.725"/>
<rect x="148.739" y="117.77" style="fill:#21D0C3;" width="51.43" height="6.725"/>
<rect x="209.93" y="117.77" style="fill:#FF5B62;" width="91.99" height="6.725"/>
<rect x="309.166" y="117.77" style="fill:#FAD24D;" width="13.367" height="6.725"/>
<rect x="148.739" y="139.547" style="fill:#FF5B62;" width="33.994" height="6.725"/>
<rect x="192.674" y="139.547" style="fill:#21D0C3;" width="68.686" height="6.725"/>
<g>
	<rect x="271.111" y="139.547" style="fill:#FAD24D;" width="51.43" height="6.725"/>
	<rect x="148.739" y="161.325" style="fill:#FAD24D;" width="51.43" height="6.725"/>
</g>
<rect x="212.984" y="161.325" style="fill:#FF5B62;" width="108.029" height="6.725"/>
<rect x="326.363" y="161.325" style="fill:#21D0C3;" width="45.072" height="6.725"/>
<rect x="148.739" y="183.102" style="fill:#FF5B62;" width="63.187" height="6.725"/>
<rect x="223.913" y="183.102" style="fill:#21D0C3;" width="63.187" height="6.725"/>
<g>
	<rect x="299.076" y="183.102" style="fill:#FAD24D;" width="63.187" height="6.725"/>
	<rect x="148.739" y="204.88" style="fill:#FAD24D;" width="51.43" height="6.725"/>
</g>
<rect x="209.93" y="204.88" style="fill:#21D0C3;" width="30.849" height="6.725"/>
<rect x="246.628" y="204.88" style="fill:#FF5B62;" width="30.849" height="6.725"/>
<path style="fill:#C2C2C4;" d="M293.934,402.831l36.096,11.565H159.708l29.121-11.565v-35.712h105.105V402.831z"/>
<path style="fill:#B0B0B0;" d="M293.934,402.831l-105.105-35.712h105.105V402.831z"/>
<path style="fill:#ECF0F1;" d="M188.829,402.831h105.105l36.096,11.565v4.983h-85.161h-85.166v-4.983l29.121-11.565H188.829z"/>
<circle style="fill:#B6B6B8;" cx="244.862" cy="342.611" r="7.815"/>
<path style="fill:#FAD24D;" d="M363.894,326.187h102.902l-7.21,85.013c-12.937,16.946-27.938,32.23-44.636,45.472h-39.985
	l-11.066-130.485L363.894,326.187L363.894,326.187z"/>
<path style="fill:#EDB937;" d="M363.894,326.187h102.902l-0.656,7.764H364.555L363.894,326.187z"/>
<path style="fill:#ED4C54;" d="M385.011,304.991h60.663c2.951,0,5.367,2.415,5.367,5.367v5.367h-71.397v-5.367
	C379.645,307.407,382.06,304.991,385.011,304.991z"/>
<path style="fill:#FF5B62;" d="M365.304,310.47h100.08c3.266,0,5.935,2.67,5.935,5.935v13.334c0,0.069-0.056,0.125-0.125,0.125
	H359.493c-0.069,0-0.125-0.056-0.125-0.125v-13.334C359.368,313.138,362.038,310.47,365.304,310.47z"/>
<path style="fill:#EDB937;" d="M375.012,456.672h39.939c-1.598,1.271-3.21,2.517-4.841,3.751h-34.327
	c-0.425,0-0.767-0.346-0.767-0.767v-2.979L375.012,456.672z"/>
<path style="fill:#FFFFFF;" d="M367.899,372.841h94.731c2.438,0,3.085,2.18,2.702,4.762l-4.355,29.172
	c-0.383,2.582-0.527,3.916-2.96,3.916h-85.331c-2.429,0-2.67-0.924-3.048-3.519l-4.31-29.569
	C364.952,375.012,365.46,372.841,367.899,372.841z"/>
<path style="fill:#EDB937;" d="M405.69,379.091c0,0,3.714,1.501,1.921,7.006c-1.788,5.505-2.296,8.138-0.116,10.674
	c2.18,2.536-1.418,2.679-3.348,1.206C395.857,391.644,400.318,377.765,405.69,379.091z M424.322,390.217
	c0,0,0.753,3.935-4.841,5.417c-2.227,0.591-3.963,1.104-5.303,1.714c1.856-1.921,2.965-5.394,2.817-9.006
	c3.367-0.984,6.535-0.429,7.33,1.87L424.322,390.217z M411.999,398.729c-0.73,0.684-1.229,1.515-1.547,2.6
	c-0.887,3.007-2.762,0.614-2.835-1.691c0.767-0.18,1.325-0.619,1.418-1.28c0.236,0.157,0.494,0.291,0.775,0.406
	c0.772,0.19,1.506,0.167,2.19-0.032v-0.004H411.999z M410.859,404.198c0,0-0.758-3.935,4.841-5.417
	c5.593-1.487,8.083-2.489,9.029-5.695c0.947-3.206,3.021-0.263,2.831,2.157c-0.822,10.402-14.896,14.189-16.696,8.96
	L410.859,404.198z M410.124,397.986c0,0-3.714-1.501-1.926-7.002c1.788-5.505,2.296-8.138,0.116-10.674
	c-2.18-2.536,1.418-2.679,3.348-1.206c8.291,6.333,3.829,20.212-1.538,18.886L410.124,397.986L410.124,397.986z"/>
<g>
</g>
<g>
</g>
<g>
</g>
<g>
</g>
<g>
</g>
<g>
</g>
<g>
</g>
<g>
</g>
<g>
</g>
<g>
</g>
<g>
</g>
<g>
</g>
<g>
</g>
<g>
</g>
<g>
</g>
</svg>
